<?xml version="1.0" encoding="utf-8"?>
<!-- Generator: Adobe Illustrator 19.2.1, SVG Export Plug-In . SVG Version: 6.00 Build 0)  -->
<svg version="1.1" id="Layer_1" xmlns="http://www.w3.org/2000/svg" xmlns:xlink="http://www.w3.org/1999/xlink" x="0px" y="0px"
	 viewBox="0 0 1652 1024" style="enable-background:new 0 0 1652 1024;" xml:space="preserve">
<style type="text/css">
	.st0{fill:#868C96;}
</style>
<g id="icomoon-ignore">
</g>
<path class="st0" d="M1640.6,290.7c5.5,0,9.9-4.4,9.9-9.9v-36.3c0-5.5-4.4-9.9-9.9-9.9c-47.3,0-85.9-38.5-85.9-85.9
	c0-8.8,1.1-17.6,3.3-25.3c1.1-3.3,1.1-6.6-1.1-8.8c-1.1-3.3-4.4-4.4-7.7-4.4H101.3c-2.2,0-5.5,2.2-7.7,4.4c-1.1,2.2-2.2,5.5-1.1,8.8
	c2.2,7.7,3.3,16.5,3.3,25.3c0,47.3-38.5,85.9-85.9,85.9c-5.5,0-9.9,4.4-9.9,9.9v36.3c0,5.5,4.4,9.9,9.9,9.9
	c9.9,0,17.6,7.7,17.6,17.6s-7.7,17.6-17.6,17.6c-5.5,0-9.9,4.4-9.9,9.9v42.9c0,6.6,4.4,11,9.9,12.1c9.9,0,17.6,7.7,17.6,17.6
	S19.8,426,9.9,426c-5.5,0-9.9,4.4-9.9,9.9V479c0,5.5,4.4,9.9,9.9,9.9c9.9,0,17.6,7.7,17.6,17.6c0,9.9-7.7,17.6-17.6,17.6
	c-5.5,0-9.9,4.4-9.9,9.9v43c0,5.5,4.4,9.9,9.9,9.9c9.9,0,17.6,7.7,17.6,17.6s-7.7,17.6-17.6,17.6c-5.5,0-9.9,4.4-9.9,9.9v43
	c0,5.5,4.4,9.9,9.9,9.9c9.9,0,17.6,7.7,17.6,17.6s-7.7,17.6-17.6,17.6c-5.5,0-9.9,4.4-9.9,9.9v43c0,5.5,4.4,9.9,9.9,9.9
	c47.3,0,85.9,38.5,85.9,85.9c0,6.6-1.1,13.2-2.2,19.8c0,3.3,0,6.6,2.2,8.8s4.4,3.3,7.7,3.3h1444.6c3.3,0,6.6-2.2,6.6-5.5
	c2.2-2.2,3.3-5.5,2.2-8.8c-1.1-6.6-2.2-13.2-2.2-19.8c0-47.3,38.5-85.9,85.9-85.9c5.5,0,9.9-4.4,9.9-9.9v-42.9
	c0-5.5-4.4-9.9-9.9-9.9c-9.9,0-17.6-7.7-17.6-17.6s7.7-17.6,17.6-17.6c5.5,0,9.9-4.4,9.9-9.9V630c0-5.5-4.4-9.9-9.9-9.9
	c-9.9,0-17.6-7.7-17.6-17.6s7.7-17.6,17.6-17.6c5.5,0,9.9-4.4,9.9-9.9v-42.9c0-5.5-4.4-9.9-9.9-9.9c-9.9,0-17.6-7.7-17.6-17.6
	s7.7-17.6,17.6-17.6c5.5,0,9.9-4.4,9.9-9.9v-42.9c0-5.5-4.4-9.9-9.9-9.9c-9.9,0-17.6-7.7-17.6-17.6s7.7-17.6,17.6-17.6
	c5.5,0,9.9-4.4,9.9-9.9v-42.9c0-5.5-4.4-9.9-9.9-9.9c-9.9,0-17.6-7.7-17.6-17.6S1630.7,290.7,1640.6,290.7L1640.6,290.7z
	 M1630.7,346.8v25.3c-15.4,4.4-27.5,18.7-27.5,36.3s11,31.9,27.5,36.3V470c-15.4,4.4-27.5,18.7-27.5,36.3s11,31.9,27.5,36.3v25.3
	c-15.4,4.4-27.5,18.7-27.5,36.3s11,31.9,27.5,36.3v25.3c-15.4,4.4-27.5,18.7-27.5,36.3s11,31.9,27.5,36.3V763
	c-54,5.5-95.8,50.6-95.8,105.7c0,3.3,1.1,6.6,1.1,11H115.6c0-3.3,1.1-7.7,0-11c0-55.1-41.8-100.2-95.8-105.7v-24.2
	c15.4-4.4,27.5-18.7,27.5-36.3s-11-31.9-27.5-36.3v-25.3c15.4-4.4,27.5-18.7,27.5-36.3s-11-31.9-27.5-36.3V543
	c15.4-4.4,27.5-18.7,27.5-36.3s-11-31.9-27.5-36.3v-25.3c15.4-4.4,27.5-18.7,27.5-36.3s-11-31.9-27.5-36.3v-25.3
	c15.4-4.4,27.5-18.7,27.5-36.3s-11-31.9-27.5-36.3V257c54-5.5,95.8-50.6,95.8-105.7c0-5.5,0-12.1-1.1-17.6H1536
	c-1.1,5.5-1.1,11-1.1,17.6c0,55.1,41.8,100.2,95.8,105.7v17.6c-15.4,4.4-27.5,18.7-27.5,36.3S1614.2,342.4,1630.7,346.8
	L1630.7,346.8z"/>
<path class="st0" d="M1375.2,227.9H276.4c-61.7,0-112.3,50.6-112.3,112.3v331.4c0,61.7,50.7,112.3,112.3,112.3h1098.9
	c61.7,0,112.3-50.7,112.3-112.3V340.2C1487.6,278.6,1436.9,227.9,1375.2,227.9L1375.2,227.9z M185,671.7V339.1
	c0-50.6,40.7-90.3,91.4-90.3h386.5V763H276.4C225.7,763,185,722.3,185,671.7L185,671.7z M1466.6,671.7c0,50.6-40.7,91.4-91.4,91.4
	H682.7V248.8h692.6c50.6,0,91.4,40.7,91.4,91.4L1466.6,671.7L1466.6,671.7z"/>
<path class="st0" d="M431.6,319.3H323.7l107.9,186.1L323.7,691.5h107.9l107.9-186.1L431.6,319.3z"/>
<path class="st0" d="M859.9,353.4c-9.9-7.7-23.1-11-40.7-11H773v145.3h30.8V436H817c17.6,0,31.9-3.3,41.8-12.1s14.3-20.9,14.3-36.3
	l0,0C873.2,373.3,867.6,361.2,859.9,353.4L859.9,353.4z M833.5,405.2c-4.4,3.3-11,5.5-20.9,5.5h-11v-44h14.3
	c8.8,0,14.3,2.2,18.7,5.5c3.3,4.4,5.5,8.8,5.5,16.5S837.9,401.9,833.5,405.2z"/>
<path class="st0" d="M1025.1,462.5h-59.5V342.4h-30.8v145.4h90.3V462.5z"/>
<path class="st0" d="M1168.2,462.5h-52.8V425h49.5v-25.3h-49.5v-31.9h52.8v-25.4h-83.6v145.4h83.6V462.5z"/>
<path class="st0" d="M1346.6,342.4h-33l-30.8,52.9l-30.9-52.9h-34.1l45.1,70.5l-48.4,74.9h33l34.2-55.1l34.1,55.1h35.2l-50.6-72.7
	L1346.6,342.4z"/>
<path class="st0" d="M859.9,537.3c-9.9-7.7-23.1-11-40.7-11H773v145.3h30.8v-51.8H817c17.6,0,31.9-3.3,41.8-12.1
	s14.3-20.9,14.3-36.3l0,0C873.2,556,867.6,545,859.9,537.3L859.9,537.3z M833.5,589.1c-4.4,3.3-11,5.5-20.9,5.5h-11v-44h14.3
	c8.8,0,14.3,2.2,18.7,5.5c3.3,4.4,5.5,8.8,5.5,16.5S837.9,585.8,833.5,589.1z"/>
<path class="st0" d="M967.8,525.2L916,671.6h33l11-34.1h52.9l11,34.1h33l-51.8-146.4L967.8,525.2L967.8,525.2z M987.7,548.3
	c0,2.2,1.1,5.5,2.2,9.9c1.1,3.3,6.6,20.9,16.5,52.9H969C978.9,578.1,985.5,557.1,987.7,548.3L987.7,548.3z"/>
<path class="st0" d="M1139.6,551.6c3.3-3.3,7.7-4.4,13.2-4.4s9.9,1.1,15.4,2.2c4.4,1.1,11,3.3,18.7,6.6l9.9-24.2
	c-7.7-3.3-15.4-5.5-22-7.7c-7.7-1.1-14.3-2.2-22-2.2c-15.4,0-27.5,3.3-36.3,11s-13.2,17.6-13.2,30.8c0,6.6,2.2,12.1,4.4,17.6
	c3.3,4.4,6.6,9.9,11,13.2c4.4,4.4,11,7.7,19.8,12.1s15.4,7.7,18.7,9.9c2.2,2.2,5.5,4.4,6.6,6.6s2.2,4.4,2.2,7.7
	c0,4.4-2.2,8.8-5.5,11c-3.3,3.3-8.8,4.4-15.4,4.4c-5.5,0-12.1,0-18.7-2.2c-7.7-1.1-15.4-4.4-25.3-8.8v28.6c11,5.5,25.3,8.8,40.7,8.8
	c16.5,0,29.7-3.3,39.6-11s14.3-17.6,14.3-30.8l0,0c0-8.8-2.2-17.6-5.5-26.4c-4.4-6.6-14.3-13.2-27.5-19.8c-11-4.4-17.6-7.7-19.8-9.9
	c-2.2-1.1-4.4-3.3-5.5-5.5c-1.1-1.1-2.2-4.4-2.2-6.6C1135.2,558.2,1136.3,553.8,1139.6,551.6L1139.6,551.6z"/>
<path class="st0" d="M1287.2,551.6c3.3-3.3,7.7-4.4,13.2-4.4s9.9,1.1,15.4,2.2c4.4,1.1,11,3.3,18.7,6.6l9.9-24.2
	c-7.7-3.3-15.4-5.5-22-7.7c-7.7-1.1-14.3-2.2-22-2.2c-15.4,0-27.5,3.3-36.3,11s-13.2,17.6-13.2,30.8c0,6.6,2.2,12.1,4.4,17.6
	c3.3,4.4,6.6,9.9,11,13.2c4.4,4.4,11,7.7,19.8,12.1s15.4,7.7,18.7,9.9c2.2,2.2,5.5,4.4,6.6,6.6s2.2,4.4,2.2,7.7
	c0,4.4-2.2,8.8-5.5,11c-3.3,3.3-8.8,4.4-15.4,4.4c-5.5,0-12.1,0-18.7-2.2c-7.7-1.1-15.4-4.4-25.3-8.8v28.6c11,5.5,25.3,8.8,40.7,8.8
	c16.5,0,29.7-3.3,39.6-11s14.3-17.6,14.3-30.8l0,0c0-8.8-3.3-17.6-5.5-26.4c-4.4-6.6-14.3-13.2-27.5-19.8c-11-4.4-17.6-7.7-19.8-9.9
	c-2.2-1.1-4.4-3.3-5.5-5.5c-1.1-1.1-2.2-4.4-2.2-6.6C1282.8,558.2,1283.9,553.8,1287.2,551.6L1287.2,551.6z"/>
</svg>
